HIERARCHY
ROOT Hips
{
  OFFSET 3.13124 94.3669 -3.18751
  CHANNELS  6 Xposition Yposition Zposition Zrotation Xrotation Yrotation
  JOINT LeftUpLeg
  {
    OFFSET 8.64259 1.95398 -2.38835
    CHANNELS 3 Zrotation Xrotation Yrotation
    JOINT LeftLeg
    {
      OFFSET 43.7702 0 0
      CHANNELS 3 Zrotation Xrotation Yrotation
      JOINT LeftFoot
      {
        OFFSET 40.6238 0 0
        CHANNELS 3 Zrotation Xrotation Yrotation
        JOINT LeftToeBase
        {
          OFFSET 12.7242 0 0
          CHANNELS 3 Zrotation Xrotation Yrotation
          End Site
          {
            OFFSET 0 0 0
          }
        }
      }
    }
  }
  JOINT RightUpLeg
  {
    OFFSET -8.2249 1.95398 -2.59336
    CHANNELS 3 Zrotation Xrotation Yrotation
    JOINT RightLeg
    {
      OFFSET 43.5653 0 0
      CHANNELS 3 Zrotation Xrotation Yrotation
      JOINT RightFoot
      {
        OFFSET 40.6238 0 0
        CHANNELS 3 Zrotation Xrotation Yrotation
        JOINT RightToeBase
        {
          OFFSET 12.7242 0 0
          CHANNELS 3 Zrotation Xrotation Yrotation
          End Site
          {
            OFFSET 0 0 0
          }
        }
      }
    }
  }
  JOINT Spine
  {
    OFFSET 0.165834 0.87714 6.61349
    CHANNELS 3 Zrotation Xrotation Yrotation
    JOINT Spine1
    {
      OFFSET 7.38962 1.71661e-005 0
      CHANNELS 3 Zrotation Xrotation Yrotation
      JOINT Spine2
      {
        OFFSET 11.9445 1.14441e-005 0
        CHANNELS 3 Zrotation Xrotation Yrotation
        JOINT Spine3
        {
          OFFSET 14.7254 4.19617e-005 0
          CHANNELS 3 Zrotation Xrotation Yrotation
          JOINT Spine4
          {
            OFFSET 10.9679 0 0
            CHANNELS 3 Zrotation Xrotation Yrotation
            JOINT RightShoulder
            {
              OFFSET 2.46616 -1.6653 3.69651
              CHANNELS 3 Zrotation Xrotation Yrotation
              JOINT RightArm
              {
                OFFSET 13.0012 0 0
                CHANNELS 3 Zrotation Xrotation Yrotation
                JOINT RightForeArm
                {
                  OFFSET 28.7848 1.52588e-005 0
                  CHANNELS 3 Zrotation Xrotation Yrotation
                  JOINT RightHand
                  {
                    OFFSET 26.5688 1.52588e-005 0
                    CHANNELS 3 Zrotation Xrotation Yrotation
                    End Site
                    {
                      OFFSET 0 0 0
                    }
                  }
                }
              }
            }
            JOINT LeftShoulder
            {
              OFFSET 2.38034 -1.29275 -3.75231
              CHANNELS 3 Zrotation Xrotation Yrotation
              JOINT LeftArm
              {
                OFFSET 16.3182 6.10352e-005 0
                CHANNELS 3 Zrotation Xrotation Yrotation
                JOINT LeftForeArm
                {
                  OFFSET 27.0901 0 0
                  CHANNELS 3 Zrotation Xrotation Yrotation
                  JOINT LeftHand
                  {
                    OFFSET 24.5451 1.52588e-005 0
                    CHANNELS 3 Zrotation Xrotation Yrotation
                    End Site
                    {
                      OFFSET 0 0 0
                    }
                  }
                }
              }
            }
            JOINT Neck
            {
              OFFSET 5.0226 -0.0266342 0
              CHANNELS 3 Zrotation Xrotation Yrotation
              JOINT Head
              {
                OFFSET 6.69363 2.86102e-005 0
                CHANNELS 3 Zrotation Xrotation Yrotation
                End Site
                {
                  OFFSET 0 0 0
                }
              }
            }
          }
        }
      }
    }
  }
}
MOTION
Frames:	13
Frame Time:	0.0333333
18.7097 90.9092 87.4548 86.2039 -39.65 91.7606 -178.76 30.1003 91.0869 -12.0409 -25.5307 1.19992 50.8451 10.9865 7.60718 28.7808 3.30275e-006 1.0879e-006 -179.106 7.68414 93.3101 -26.1991 37.3726 2.8104 74.755 2.61451 0.856044 28.7808 1.50894e-005 2.53958e-005 1.03555 6.80671 -91.7976 13.2265 0.839434 -1.5981 1.55481 0.76829 -1.6337 -20.9771 1.2821 -1.27058 -0.964415 1.28208 -1.2706 81.2139 -55.3712 -112.153 -0.0637584 34.2116 6.78518 47.6489 33.8006 -68.2744 -4.48292 -0.549512 10.8492 -105.956 -61.0111 60.0022 -21.2793 -14.8104 4.13906 -19.9975 -23.8049 -47.8064 10.0938 -0.573118 -8.78637 -1.59185 6.78701 14.7602 -3.15378 4.72167 13.823 
20.4738 90.2317 88.9183 86.286 -38.3156 92.2707 -179.076 30.0302 91.9966 -6.34814 -28.8662 2.08268 51.252 11.3679 7.83723 28.7808 3.30275e-006 1.0879e-006 -178.981 6.71087 93.9309 -27.9844 39.3081 3.10328 76.6852 4.36187 1.49969 28.7808 1.50894e-005 2.53958e-005 1.09053 6.74578 -91.9544 13.3418 0.691962 -1.53939 1.67011 0.623526 -1.56835 -20.8612 1.12259 -1.25962 -0.848574 1.12256 -1.25964 80.6832 -55.2456 -112.94 4.64799 31.7929 -5.60329 46.7692 39.8502 -64.4046 -18.7737 -0.387984 -3.41495 -105.308 -60.9171 60.796 -21.5135 -14.7264 5.83763 -17.4235 -23.1796 -44.6661 10.1329 -0.531534 -8.39153 -3.93399 7.25809 14.6968 -1.76271 5.67673 13.3808 
22.4376 89.852 90.2886 86.6156 -36.9633 92.8372 -179.211 30.2245 92.5316 -3.87011 -32.6178 2.802 53.3286 11.7287 7.87055 28.7808 3.30275e-006 1.0879e-006 -178.692 4.66201 94.3876 -28.0709 41.0816 3.34365 77.343 5.77948 2.05301 28.7808 1.50894e-005 2.53958e-005 1.00029 6.70635 -91.9094 13.4223 0.507293 -1.51515 1.75054 0.44011 -1.53601 -20.7799 0.939174 -1.2935 -0.767246 0.939146 -1.29353 79.9835 -55.4267 -113.86 6.41732 31.933 -4.57855 48.8226 34.9645 -68.56 -17.9244 1.59694 -15.7067 -105.147 -60.831 60.9747 -21.3596 -14.9112 7.8596 -15.8943 -23.3294 -41.9849 11.0936 -0.256089 -5.79101 -6.29465 7.34355 14.9343 0.670076 6.30911 12.0567 
24.7089 89.6879 91.4816 86.2383 -36.0029 92.5375 -179.346 29.422 92.4193 -1.728 -33.017 3.49241 53.652 11.847 7.92211 28.7808 3.30275e-006 1.0879e-006 -178.584 2.73312 94.2053 -27.1539 42.0928 3.44486 76.836 7.171 2.69232 28.7808 1.50894e-005 2.53958e-005 0.911365 6.60314 -91.7692 13.6301 0.451209 -1.43159 1.9584 0.387744 -1.45007 -20.5724 0.860608 -1.22975 -0.559772 0.860597 -1.22977 79.7784 -55.6962 -114.051 8.93851 30.1166 -8.71857 41.6284 33.4798 -63.6165 -18.966 2.67707 -21.5625 -105.217 -60.6982 60.8352 -21.1421 -15.0998 9.85347 -15.8021 -24.3948 -40.5998 13.676 0.380234 -1.04874 -7.86049 7.49878 14.4701 2.38494 6.85589 11.7609 
27.2041 89.8602 92.737 87.3075 -35.5663 93.181 -179.483 26.4004 92.441 -0.893826 -32.9978 4.68326 50.7016 8.96559 6.13358 28.7808 3.30275e-006 1.0879e-006 -178.228 -1.29428 93.9189 -24.3127 42.3878 3.41258 75.2354 8.82187 3.60269 28.7808 1.50894e-005 2.53958e-005 0.742655 6.64532 -91.415 13.5659 0.541777 -1.4614 1.89416 0.47702 -1.48361 -20.6369 0.955244 -1.23243 -0.624238 0.955226 -1.23245 78.9003 -56.3403 -115.036 10.9087 29.0134 -10.8648 35.768 29.5861 -61.2121 -22.9619 3.21872 -21.3804 -104.785 -60.6648 61.3786 -20.8298 -15.308 11.5945 -15.976 -24.8613 -40.3736 16.523 1.52348 5.32209 -8.47466 7.32956 14.2748 3.91257 6.89505 10.6131 
30.0639 90.2688 93.6448 87.5261 -34.7382 92.6505 -179.811 23.8031 91.0868 1.09971 -34.0456 5.75158 47.4776 9.2918 6.6814 28.7808 3.30275e-006 1.0879e-006 -178.493 -4.51508 92.5393 -21.8744 40.9966 3.20638 71.2325 9.68981 4.51968 28.7808 1.50894e-005 2.53958e-005 0.635261 6.6445 -91.0663 13.5792 0.623429 -1.33664 1.90774 0.563983 -1.36276 -20.6248 0.996342 -1.08752 -0.612116 0.996329 -1.08752 78.6534 -57.4035 -114.975 12.6371 27.7292 -11.5931 30.4227 25.7086 -59.4536 -26.3998 4.0504 -22.7694 -104.162 -60.8179 62.236 -20.9079 -15.2701 11.2691 -14.4279 -25.3553 -37.2248 19.6022 2.06599 6.76098 -7.92577 7.08294 13.8924 5.23445 6.66636 9.89873 
33.1557 90.8711 94.4208 87.613 -33.511 91.7526 -179.405 21.1464 89.1389 1.93193 -30.4978 4.98282 46.7682 9.2276 6.69974 28.7808 3.30275e-006 1.0879e-006 -179.126 -7.75844 90.6434 -19.1712 40.3864 3.12754 65.3033 11.584 6.34375 28.7808 1.50894e-005 2.53958e-005 0.628716 6.6716 -90.8546 13.5253 0.756815 -1.02264 1.85413 0.711054 -1.05494 -20.681 1.02847 -0.747909 -0.668308 1.02847 -0.747932 77.7367 -58.9515 -115.645 13.4978 27.4488 -11.0773 32.3422 24.5999 -62.3352 -26.8832 4.65276 -25.1366 -101.885 -60.7695 65.1669 -21.213 -15.1355 11.8589 -15.0272 -26.0639 -37.5251 20.3117 1.42667 3.17743 -6.90444 6.63866 12.6029 7.31959 6.34777 9.75703 
36.2415 91.4529 95.0344 87.2819 -31.9066 90.8772 -179.14 19.6833 87.5269 1.20044 -27.7553 4.1401 46.7218 8.7334 6.29926 28.7808 3.30275e-006 1.0879e-006 -179.879 -9.0523 88.902 -18.9038 38.5146 2.90237 57.7212 12.35 8.07741 28.7808 1.50894e-005 2.53958e-005 0.689253 6.63437 -90.6715 13.5998 0.999925 -0.809566 1.929 0.963319 -0.852747 -20.6084 1.197 -0.471661 -0.595745 1.19702 -0.471672 76.9679 -60.2425 -116.189 12.5181 29.6506 -3.30894 60.5508 25.4353 -80.65 -18.7963 5.12126 -36.0465 -99.839 -60.3243 67.6953 -21.6061 -14.9428 12.4487 -16.5853 -26.8125 -39.3256 19.7183 0.751519 -0.0585002 -6.79563 5.84228 11.4333 10.1875 5.8136 9.21427 
39.3301 91.7234 95.4036 86.5542 -29.7956 89.6965 -179.026 18.9072 85.6415 0.126965 -25.4253 3.28734 47.2374 8.45873 6.0351 28.7808 3.30275e-006 1.0879e-006 179.377 -7.59942 86.9742 -23.2632 34.4721 2.43896 50.4283 11.6363 8.90872 28.7808 1.50894e-005 2.53958e-005 0.72675 6.53544 -90.4201 13.8014 1.20361 -0.638296 2.1308 1.17437 -0.691205 -20.4086 1.33947 -0.246124 -0.395915 1.33948 -0.246142 76.0978 -61.0802 -117.026 12.277 28.8073 1.02921 60.3039 26.1227 -80.2346 -16.6808 4.36865 -35.8636 -98.4326 -59.9118 69.4231 -21.9299 -14.7698 12.8021 -17.0778 -26.2769 -40.6437 18.3375 0.427458 -1.53427 -7.01443 5.25914 10.4385 12.3768 5.40671 8.43446 
42.1302 91.6314 95.5305 86.1767 -27.4655 88.5209 -178.894 18.5063 83.4146 -1.67488 -23.4076 2.65565 47.7903 9.46691 6.77491 28.7808 3.30275e-006 1.0879e-006 179.054 -4.51232 85.2979 -30.059 27.3205 1.61739 44.3199 8.45654 7.226 28.7808 1.50894e-005 2.53958e-005 0.750754 6.42877 -89.9759 14.0347 1.32636 -0.610893 2.36424 1.29856 -0.668806 -20.1762 1.4489 -0.183076 -0.163523 1.4489 -0.183098 71.6646 -59.6526 -123.387 11.6533 26.3518 3.45408 34.5529 27.9964 -61.394 -21.3221 3.96793 -26.7072 -99.2779 -60.1052 68.3658 -21.5113 -14.9757 12.8806 -16.2041 -25.0973 -40.4871 17.2176 0.271062 -2.27131 -8.73054 4.52804 11.2492 14.4215 4.62462 6.22017 
43.907 89.7294 95.4777 86.7101 -25.5784 86.4058 -177.572 23.1559 79.5581 -13.8321 -22.7526 2.03489 53.6534 9.3128 6.0919 28.7808 3.30275e-006 1.0879e-006 177.161 -18.9223 81.0675 -4.83568 21.959 1.26724 8.16771 53.1336 76.3157 28.7808 1.50894e-005 2.53958e-005 0.990565 6.43747 -88.2264 14.0542 1.33038 -0.537203 2.38377 1.30574 -0.595417 -20.1568 1.4302 -0.111488 -0.144165 1.4302 -0.111493 68.1338 -57.0937 -129.203 10.9187 25.3247 7.97563 43.4786 36.8981 -63.1555 -21.4582 3.83605 -25.947 -100.454 -60.5117 66.9488 -20.7617 -15.3398 11.1164 -14.4142 -24.3452 -38.278 17.6767 0.158362 -2.96318 -9.44532 4.36688 11.0805 14.5456 4.3881 5.08916 
47.1812 91.0762 95.7046 88.2959 -23.3996 87.6518 -178.09 16.327 79.4886 -7.67535 -20.1852 1.33145 52.4518 10.9006 7.32258 28.7808 3.30275e-006 1.0879e-006 179.33 -0.708844 83.0858 -43.382 28.6588 1.51999 47.6357 -1.62669 -0.792517 28.7808 1.50894e-005 2.53958e-005 0.771557 6.53412 -89.4796 13.8065 1.3609 -0.527926 2.1361 1.33642 -0.587441 -20.4047 1.45534 -0.0935267 -0.392069 1.45533 -0.0935519 67.1396 -54.3517 -131.912 12.7192 23.2893 12.5317 49.7464 41.9097 -65.9493 -18.9945 3.26021 -25.2846 -102.187 -61.0046 64.8568 -20.0433 -15.68 9.31186 -12.7968 -23.3652 -36.4332 17.4804 0.00366088 -3.83079 -9.41317 4.34674 11.8333 12.5114 4.04395 3.39697 
49.3079 90.7086 95.7083 90.0099 -21.8028 87.3084 -177.771 14.7139 77.7882 -10.792 -19.8617 0.781186 55.823 10.9155 6.97351 28.7808 3.30275e-006 1.0879e-006 -179.887 4.34117 81.225 -52.6873 26.9833 1.20427 48.8379 -1.18852 -0.472823 28.7808 1.50894e-005 2.53958e-005 0.808983 6.76899 -89.1069 13.3612 1.39464 -0.413823 1.69092 1.37506 -0.474865 -20.8503 1.45449 0.0246457 -0.83761 1.45448 0.0246314 66.52 -53.0374 -133.439 14.5658 21.9852 15.9035 58.3169 44.823 -71.8131 -20.1302 2.93789 -22.2102 -102.45 -60.8144 64.4493 -19.4254 -16.0378 8.54845 -14.5305 -22.5968 -40.5102 15.9486 0.479714 -0.841267 -6.98221 4.76006 11.4684 8.1468 4.01278 2.37213 
